<?xml version="1.0" standalone="no"?>
<!DOCTYPE svg PUBLIC "-//W3C//DTD SVG 20010904//EN"
 "http://www.w3.org/TR/2001/REC-SVG-20010904/DTD/svg10.dtd">
<svg version="1.0" xmlns="http://www.w3.org/2000/svg"
 width="1024.000000pt" height="1024.000000pt" viewBox="0 0 1024.000000 1024.000000"
 preserveAspectRatio="xMidYMid meet">

<g transform="translate(0.000000,1024.000000) scale(0.100000,-0.100000)"
fill="#ffffff" stroke="none">
<path d="M4885 7849 c-410 -13 -748 -55 -1125 -139 -161 -36 -440 -125 -600
-193 -137 -57 -280 -128 -280 -138 0 -5 -7 -9 -16 -9 -35 0 -383 -225 -444
-287 -29 -30 -23 -27 95 48 105 65 350 189 487 245 112 46 417 153 453 159 11
1 65 15 120 30 543 145 1261 225 2030 225 259 0 666 -12 865 -26 64 -4 92 -3
85 4 -9 8 -449 49 -725 67 -97 6 -665 25 -695 23 -11 -1 -123 -5 -250 -9z"/>
<path d="M6645 7751 c25 -7 18 -9 -36 -10 -89 -1 -296 -37 -393 -68 -184 -58
-323 -140 -434 -257 -210 -221 -227 -518 -44 -782 l48 -69 54 3 c30 1 69 7 85
12 31 10 285 32 565 50 213 14 1086 14 1345 1 340 -18 557 -31 620 -36 559
-48 923 -116 1255 -235 300 -106 460 -246 460 -399 0 -82 -46 -195 -132 -326
l-39 -60 61 64 c111 115 174 239 174 345 0 277 -456 500 -1309 640 -82 14
-175 27 -205 30 -30 3 -82 10 -115 16 -90 15 -572 58 -810 72 -281 16 -1312
17 -1555 0 -102 -7 -220 -17 -263 -23 -58 -9 -81 -8 -91 0 -8 7 -27 47 -43 89
-24 66 -28 91 -28 177 1 90 4 107 31 165 132 281 544 452 1074 445 503 -7 900
-135 1375 -444 118 -77 458 -325 525 -383 50 -44 150 -116 150 -109 0 5 -54
60 -120 123 l-120 113 -1 50 c-1 33 -3 40 -6 20 -7 -51 -19 -50 -80 2 -139
119 -376 284 -563 390 -177 100 -447 223 -491 223 -10 0 -20 4 -23 9 -13 20
-282 93 -443 120 -162 28 -547 61 -478 42z"/>
<path d="M6675 7519 c-190 -16 -413 -84 -545 -167 -46 -29 -31 -28 28 2 187
93 513 142 827 123 131 -8 376 -47 450 -72 22 -7 72 -23 110 -35 273 -87 574
-257 932 -526 70 -53 134 -99 143 -103 22 -12 130 -23 130 -14 0 10 -334 260
-455 341 -327 219 -622 351 -930 416 -205 43 -443 55 -690 35z"/>
<path d="M7310 7379 c19 -5 42 -13 50 -18 8 -4 58 -25 110 -47 241 -97 461
-231 739 -447 111 -87 115 -89 192 -102 43 -7 79 -9 79 -4 0 4 -42 41 -93 81
-327 257 -648 428 -971 518 -60 16 -117 30 -125 29 -9 0 0 -5 19 -10z"/>
<path d="M8756 7077 c-17 -17 -26 -36 -25 -54 1 -16 3 -21 6 -11 6 24 37 31
100 23 89 -11 192 -44 276 -87 101 -53 109 -69 73 -142 -15 -30 -41 -67 -57
-81 l-31 -25 43 0 c34 0 47 6 73 34 18 18 45 58 61 89 25 46 28 60 19 84 -11
31 -87 82 -163 109 -25 9 -54 20 -63 24 -27 14 -169 49 -230 56 -52 6 -58 4
-82 -19z"/>
<path d="M9367 6140 c-212 -82 -356 -366 -414 -813 -15 -112 -20 -130 -38
-137 -11 -5 -81 -27 -155 -50 -274 -85 -649 -252 -955 -425 -184 -103 -195
-110 -265 -153 -162 -101 -206 -130 -379 -248 l-184 -125 7 38 c22 134 28 194
28 323 0 162 -11 246 -48 368 -49 159 -152 305 -265 375 -95 58 -255 94 -357
80 l-45 -6 75 -28 c244 -89 374 -234 455 -504 28 -94 26 -442 -4 -582 -40
-185 -129 -467 -180 -565 -7 -16 -9 -28 -4 -28 5 0 58 44 118 98 227 205 484
401 798 609 110 73 205 137 212 143 7 5 15 10 18 10 3 0 49 26 103 59 236 142
547 308 782 416 144 67 175 80 280 125 81 35 80 34 80 119 1 147 44 371 101
521 63 167 158 293 253 340 76 36 182 38 282 4 17 -6 17 -5 -1 9 -61 46 -215
60 -298 27z"/>
<path d="M9525 6079 c-4 -6 -25 -99 -46 -207 -22 -108 -41 -198 -44 -200 -2
-2 -46 32 -98 77 -52 45 -99 81 -105 81 -5 0 -19 -30 -31 -66 -25 -76 -32 -59
79 -183 41 -45 75 -79 77 -75 1 5 7 28 13 51 15 60 54 103 93 103 l32 0 -35
-18 c-54 -27 -83 -94 -83 -190 -1 -61 -2 -70 -9 -44 -5 17 -10 32 -13 32 -2 0
-32 -49 -66 -110 -35 -60 -69 -110 -76 -110 -17 0 -17 2 16 -72 35 -78 111
-153 165 -164 135 -25 280 130 352 376 26 87 28 109 29 260 0 134 -4 176 -19
225 -37 119 -91 194 -161 226 -46 21 -61 23 -70 8z m129 -98 c36 -57 67 -160
75 -251 l7 -78 -41 -6 c-150 -21 -147 -21 -141 5 6 26 56 351 56 362 0 19 22
3 44 -32z m-64 -498 c0 -53 -29 -113 -55 -113 -20 0 -19 7 4 36 11 13 22 47
26 74 9 63 25 65 25 3z m109 -74 c-30 -108 -97 -244 -113 -229 -3 3 -10 38
-16 78 -11 66 -10 74 9 97 11 14 22 39 26 55 7 33 18 43 60 58 54 19 55 17 34
-59z m-221 -201 c29 -105 30 -114 15 -126 -27 -20 -89 -33 -120 -26 -41 10
-93 43 -93 60 0 19 141 204 155 204 6 0 25 -51 43 -112z"/>
<path d="M3810 6010 c-122 -7 -345 -38 -336 -47 3 -3 67 0 143 6 76 6 201 12
278 12 159 0 476 -18 549 -32 60 -11 110 -39 114 -63 3 -15 -1 -17 -25 -12
-15 3 -108 13 -205 22 -219 20 -650 14 -763 -10 l-70 -16 70 6 c121 8 424 6
565 -6 161 -13 383 -45 410 -60 24 -13 25 -19 6 -46 -14 -20 -18 -20 -103 -8
-204 30 -547 42 -713 25 -52 -5 -28 -8 120 -14 102 -4 228 -11 280 -17 52 -6
145 -15 205 -20 140 -12 181 -25 191 -59 4 -14 7 -29 6 -33 -1 -5 2 -8 7 -8 5
0 12 -7 15 -16 4 -11 2 -15 -7 -11 -8 3 -14 -1 -14 -8 0 -7 6 -11 14 -8 7 3
13 -2 13 -11 0 -9 5 -16 10 -16 6 0 10 -9 10 -20 0 -11 -4 -20 -10 -20 -5 0
-10 -4 -10 -10 0 -26 43 -5 97 48 44 42 72 81 104 146 38 78 44 98 44 155 0
62 -1 66 -32 87 -38 25 -110 39 -276 54 -153 13 -527 18 -687 10z"/>
<path d="M3428 5953 c6 -2 18 -2 25 0 6 3 1 5 -13 5 -14 0 -19 -2 -12 -5z"/>
<path d="M8780 5750 c-171 -89 -382 -146 -625 -171 -195 -19 -556 -2 -965 46
-381 45 -785 53 -1010 21 -366 -52 -652 -178 -869 -382 -97 -91 -136 -139
-145 -179 l-8 -30 26 30 c14 17 26 26 26 20 0 -5 5 -2 11 8 6 9 14 15 19 12 5
-3 12 0 16 6 4 8 3 9 -4 5 -7 -4 -12 -3 -12 2 0 8 48 35 60 33 3 0 6 -10 6
-21 1 -16 -3 -19 -19 -14 -13 4 -17 2 -13 -5 4 -6 3 -11 -2 -11 -5 0 -23 -13
-40 -30 -18 -16 -37 -30 -42 -30 -6 0 -9 -4 -5 -9 3 -5 -1 -16 -9 -24 -8 -8
-12 -18 -8 -22 4 -4 -4 -4 -18 -1 -15 4 -20 4 -13 -1 13 -9 6 -56 -7 -48 -4 2
-5 -7 -2 -20 3 -18 0 -25 -11 -25 -10 0 -13 -8 -11 -28 2 -15 -1 -34 -6 -42
-9 -13 -11 -13 -20 0 -7 12 -9 10 -7 -7 0 -12 6 -19 12 -16 7 4 7 3 0 -4 -16
-17 -55 -26 -55 -13 0 6 -4 8 -10 5 -5 -3 -10 1 -10 10 0 9 4 14 8 11 4 -2 8
4 8 14 0 31 -25 3 -53 -60 -162 -366 -197 -894 -88 -1318 15 -57 24 -106 20
-110 -9 -10 -302 -4 -424 8 -132 13 -401 52 -586 85 -232 40 -405 72 -490 90
-193 40 -393 83 -550 118 -60 14 -164 37 -230 52 -340 76 -1044 254 -1270 320
-44 13 -96 26 -115 29 -41 7 -40 6 110 -57 l105 -45 42 -77 c52 -95 93 -149
156 -204 157 -135 367 -157 579 -60 65 31 67 31 115 16 26 -8 127 -40 223 -70
96 -30 191 -60 210 -65 19 -6 105 -30 190 -55 85 -24 198 -55 250 -67 52 -12
115 -28 140 -36 25 -7 79 -21 120 -30 41 -8 136 -29 210 -45 301 -64 623 -112
875 -130 184 -13 524 -6 601 13 l52 13 -19 60 c-86 271 -136 727 -110 1015 20
238 55 386 134 577 56 134 61 146 58 156 -3 16 20 87 28 87 5 0 8 31 8 70 0
38 3 73 6 77 4 3 26 7 49 7 l43 1 -1 -52 c-1 -29 0 -53 2 -53 2 0 44 37 93 83
374 350 795 436 1666 342 72 -8 247 -22 390 -31 411 -28 674 -2 937 91 114 41
353 172 374 206 7 12 11 14 -96 -41z m-6951 -1940 c132 -49 228 -90 222 -95
-26 -16 -166 -17 -226 -2 -118 29 -140 42 -232 134 -60 59 -67 78 -25 62 15
-6 132 -51 261 -99z"/>
<path d="M5210 5613 c-249 -148 -542 -283 -745 -344 -114 -34 -314 -69 -395
-69 -30 0 -62 -5 -70 -10 -15 -9 -16 -13 -19 -46 0 -8 -5 -13 -9 -10 -4 3 -8
-7 -8 -22 1 -16 8 -30 19 -34 21 -9 194 7 292 27 184 36 427 142 643 279 147
94 409 284 392 286 -3 0 -48 -25 -100 -57z"/>
<path d="M4430 5575 c-57 -60 -153 -114 -245 -136 -108 -26 -117 -30 -131 -57
-6 -12 -14 -19 -19 -14 -5 4 -5 1 -1 -5 10 -17 97 -16 219 2 150 22 228 65
221 121 -2 21 1 24 19 20 12 -3 16 -3 10 0 -7 3 -13 14 -13 24 0 10 6 21 13
23 10 4 10 6 0 6 -7 1 -13 8 -13 17 0 8 -4 12 -10 9 -5 -3 -10 -1 -10 4 0 18
-15 12 -40 -14z"/>
<path d="M4524 5530 c0 -16 3 -27 6 -25 8 5 6 42 -1 50 -3 2 -5 -8 -5 -25z"/>
<path d="M3094 5483 c6 -6 200 -50 256 -57 14 -2 32 -6 40 -9 81 -30 469 -83
521 -72 23 5 38 27 39 56 0 4 -42 10 -92 14 -51 4 -156 15 -233 25 -77 11
-165 22 -195 25 -30 3 -84 10 -120 15 -76 11 -226 13 -216 3z"/>
<path d="M1405 5475 c6 -2 48 -11 95 -19 103 -18 306 -56 495 -91 77 -15 187
-35 245 -45 58 -11 228 -42 379 -70 151 -27 308 -54 350 -60 42 -6 99 -15 126
-20 69 -13 299 -49 420 -65 55 -8 154 -17 221 -21 l121 -7 6 54 c4 29 3 56 -1
60 -4 3 -65 12 -137 18 -159 16 -288 32 -510 67 -93 14 -213 32 -265 39 -52 8
-127 18 -165 24 -39 6 -160 19 -270 30 -110 11 -310 32 -445 46 -510 53 -691
70 -665 60z"/>
<path d="M6337 5258 c-2 -13 -8 -30 -11 -39 -5 -11 2 -26 18 -44 36 -38 35
-113 -1 -83 -7 6 -16 8 -20 4 -3 -3 -1 -6 5 -6 6 0 9 -7 6 -15 -4 -8 -14 -15
-24 -15 -32 0 -50 -11 -50 -31 0 -15 6 -19 32 -17 32 3 32 2 29 -36 -3 -43
-23 -71 -43 -61 -7 4 -4 -1 6 -9 20 -16 20 -16 0 -30 -18 -14 -18 -15 -1 -21
9 -4 17 -12 17 -17 0 -6 -6 -8 -13 -5 -9 3 -13 -4 -12 -23 0 -16 4 -26 8 -23
5 3 6 11 3 19 -3 8 -1 14 4 14 6 0 10 -7 10 -15 0 -8 5 -15 10 -15 6 0 10 -7
10 -15 0 -8 9 -24 19 -34 18 -18 18 -31 -1 -31 -5 0 -6 5 -2 12 5 8 2 9 -9 5
-11 -4 -22 2 -33 19 -9 13 -19 22 -22 19 -3 -2 -11 3 -18 13 -15 19 -18 36 -6
28 10 -6 8 121 -2 131 -5 4 -6 2 -2 -4 4 -8 2 -13 -6 -13 -8 0 -9 -3 -3 -8 6
-4 10 -14 10 -22 0 -8 -4 -18 -10 -22 -7 -5 -6 -8 0 -8 6 0 11 -9 11 -20 0
-11 -4 -20 -8 -20 -4 0 -8 5 -8 10 0 21 -30 9 -44 -17 -7 -16 -35 -88 -61
-161 l-47 -132 -127 119 c-69 66 -144 138 -166 160 -21 23 -47 41 -56 41 -28
0 -49 -11 -43 -22 4 -6 1 -9 -6 -6 -21 7 -55 -32 -93 -108 l-36 -71 150 -199
c83 -109 154 -203 158 -207 5 -5 18 19 29 52 28 84 87 168 141 202 54 35 126
40 160 12 22 -18 21 -18 -32 -18 -66 0 -120 -33 -172 -103 -87 -119 -115 -288
-69 -417 6 -18 5 -18 -8 -5 -22 22 -48 95 -48 135 0 19 -3 35 -7 35 -5 -1 -82
-95 -173 -210 -91 -115 -170 -209 -177 -209 -6 -1 -15 19 -19 44 -3 25 -11 48
-16 51 -20 12 22 -202 54 -276 49 -114 77 -159 138 -220 99 -99 207 -133 338
-106 344 72 679 541 767 1076 76 463 -43 865 -290 982 -76 35 -131 38 -138 6z
m219 -141 c68 -105 106 -212 125 -354 11 -88 13 -241 3 -299 l-6 -31 -126 -6
c-168 -9 -242 -9 -242 1 0 4 16 61 36 127 64 218 85 289 110 375 56 191 65
220 72 220 4 0 16 -15 28 -33z m-209 -874 c23 -56 12 -149 -27 -222 -38 -71
-82 -95 -134 -75 -22 9 -20 34 3 34 19 0 80 60 101 100 20 38 39 150 30 176
-16 40 9 28 27 -13z m258 -155 c-22 -73 -126 -300 -145 -318 -3 -3 -18 -25
-34 -50 -40 -62 -136 -178 -153 -184 -10 -4 -13 26 -13 161 l0 167 44 40 c41
39 96 126 96 153 0 13 11 17 109 38 90 20 104 19 96 -7z m-598 -230 c5 -7 24
-103 42 -213 17 -110 34 -211 37 -225 4 -22 -1 -29 -29 -42 -54 -26 -147 -41
-212 -34 -78 8 -154 47 -212 109 l-46 49 49 49 c111 110 340 318 350 319 6 0
16 -6 21 -12z"/>
<path d="M5394 5154 c0 -24 2 -42 4 -39 8 7 10 75 3 79 -3 2 -6 -16 -7 -40z"/>
<path d="M9800 5147 c-74 -34 -116 -59 -118 -70 -3 -16 -1 -16 30 2 18 10 78
42 133 70 130 66 102 65 -45 -2z"/>
<path d="M6330 5150 c-9 -6 -10 -10 -3 -10 6 0 15 5 18 10 8 12 4 12 -15 0z"/>
<path d="M6990 5025 c6 -16 15 -34 20 -40 4 -5 20 -58 34 -117 31 -125 46
-303 39 -438 l-6 -95 39 35 c130 117 374 276 552 361 145 69 191 89 201 89 5
0 12 4 16 9 13 22 -214 -37 -384 -98 -87 -31 -226 -99 -274 -133 -31 -22 -31
-23 -47 70 -21 123 -110 304 -180 367 l-21 19 11 -29z"/>
<path d="M5309 5028 c-5 -18 -6 -38 -1 -34 7 8 12 36 6 36 -2 0 -4 -1 -5 -2z"/>
<path d="M5073 4931 c0 -11 5 -18 9 -15 4 3 5 11 1 19 -7 21 -12 19 -10 -4z"/>
<path d="M9200 4874 c-74 -35 -218 -103 -320 -153 -102 -49 -277 -133 -390
-187 -351 -167 -1631 -814 -1780 -899 -25 -14 -52 -28 -60 -31 -9 -3 -29 -26
-45 -52 -125 -202 -328 -377 -515 -442 -85 -31 -242 -34 -311 -7 l-46 17 -198
-110 c-109 -60 -202 -110 -206 -110 -5 0 -9 -4 -9 -10 0 -5 -5 -10 -12 -10
-24 0 -852 -470 -883 -502 -25 -25 19 -3 360 177 138 72 313 165 390 205 77
40 147 79 156 86 8 8 20 14 26 14 6 0 32 12 57 26 26 15 49 25 51 22 5 -4 -38
-33 -430 -284 -349 -223 -381 -244 -371 -244 9 0 666 373 717 406 19 13 38 24
42 24 4 0 28 13 54 29 79 47 254 140 248 131 -4 -7 -122 -80 -328 -204 -73
-45 -150 -96 -144 -96 14 0 172 82 175 91 2 5 10 9 18 9 7 0 152 70 320 156
169 86 304 152 300 146 -3 -5 -90 -70 -193 -143 -104 -73 -194 -139 -201 -146
-7 -7 -18 -13 -24 -13 -6 0 -8 -3 -5 -6 4 -4 24 4 44 18 90 60 1091 666 1118
677 5 2 37 21 70 41 33 21 116 70 185 110 69 40 172 101 230 135 58 34 258
149 445 255 187 107 342 197 345 200 3 4 13 9 23 13 10 4 112 59 225 124 114
64 250 138 302 166 52 27 129 69 170 92 74 41 112 62 438 236 90 48 160 89
155 91 -34 20 -65 12 -193 -48z"/>
<path d="M2190 4126 c25 -7 81 -23 125 -35 44 -12 136 -38 205 -57 136 -38
202 -56 267 -74 l42 -11 -6 -98 c-6 -97 -6 -98 18 -104 55 -15 57 -13 63 81 4
48 9 102 12 120 6 39 2 41 -146 71 -58 12 -212 44 -343 71 -226 47 -335 64
-237 36z"/>
<path d="M1660 3452 c-36 -21 -105 -60 -155 -86 -150 -81 -378 -208 -420 -235
-22 -14 -60 -35 -85 -47 -39 -18 -523 -293 -755 -427 -207 -121 23 -6 558 279
81 44 173 92 205 108 31 16 122 64 202 106 80 43 156 81 170 85 14 4 -81 -61
-210 -145 -129 -83 -281 -181 -336 -218 -56 -37 -130 -84 -164 -105 -34 -21
-60 -41 -57 -44 3 -2 19 5 36 16 17 12 44 30 61 41 16 11 40 24 52 29 13 5 91
48 173 96 83 48 170 99 195 112 25 14 156 88 291 164 234 132 315 173 218 110
-24 -15 -131 -81 -236 -146 -106 -65 -191 -120 -189 -123 3 -2 179 84 391 193
213 108 389 194 391 192 2 -2 -78 -63 -178 -135 -101 -72 -192 -138 -203 -147
-34 -27 52 20 170 94 61 37 175 107 255 156 143 86 199 126 155 111 -108 -39
-270 -48 -365 -20 -95 27 -101 26 -170 -14z"/>
<path d="M4322 2329 c-29 -17 -51 -33 -49 -36 6 -5 73 28 102 51 34 26 3 17
-53 -15z"/>
</g>
</svg>
